<svg xmlns="http://www.w3.org/2000/svg" width="30" height="21" viewBox="0 0 30 21"><g><g opacity="-1"><g opacity="-.6"><path d="M1.5 17h27a1.5 1.5 0 0 1 1.5 1.5v1a1.5 1.5 0 0 1-1.5 1.5h-27A1.5 1.5 0 0 1 0 19.5v-1A1.5 1.5 0 0 1 1.5 17z"/></g><g opacity="-.6"><path d="M1.5 9h27a1.5 1.5 0 0 1 1.5 1.5v1a1.5 1.5 0 0 1-1.5 1.5h-27A1.5 1.5 0 0 1 0 11.5v-1A1.5 1.5 0 0 1 1.5 9z"/></g><g opacity="-.6"><path d="M1.5 0h27A1.5 1.5 0 0 1 30 1.5v1A1.5 1.5 0 0 1 28.5 4h-27A1.5 1.5 0 0 1 0 2.5v-1A1.5 1.5 0 0 1 1.5 0z"/></g></g></g></svg>